#N canvas 315 377 1365 651 12;
#X obj 251 378 env~ 8192, f 4;
#X floatatom 250 418 5 0 0 0 - - -;
#X msg 225 304 print;
#X obj 421 259 pack 0 50;
#X obj 421 284 line~;
#X obj 300 380 output~;
#X floatatom 420 237 7 0 0 0 - - -;
#X text 164 277 filter state;
#X floatatom 23 272 5 1 10 0 - - -;
#X msg 23 299 oversample \$1;
#X text 248 441 output monitor;
#X obj 420 186 loadbang;
#X msg 161 303 set;
#X text 160 258 set or print;
#X text 174 236 utility:;
#X text 16 245 oversampling:;
#X floatatom 311 193 5 0 150 0 - - -;
#X obj 311 215 mtof;
#X obj 312 260 pack 0 50;
#X obj 312 285 line~;
#X floatatom 311 238 7 0 0 0 - - -;
#X obj 311 144 loadbang;
#X msg 311 169 69;
#X text 239 35 patch to test rungekutte~ on the Lorenz attractor;
#X msg 420 211 10;
#X obj 509 259 pack 0 50;
#X obj 509 284 line~;
#X floatatom 508 237 7 0 0 0 - - -;
#X obj 508 186 loadbang;
#X obj 597 259 pack 0 50;
#X obj 597 284 line~;
#X floatatom 596 237 7 0 0 0 - - -;
#X obj 596 186 loadbang;
#X obj 164 380 print~;
#X obj 163 351 bng 15 250 50 0 empty empty empty 17 7 0 10 -262144
-1 -1;
#X text 272 107 speed parameter;
#X text 449 133 classical parameters:;
#X text 428 157 sigma;
#X text 515 157 rho;
#X text 602 157 beta;
#X obj 28 332 loadbang;
#X msg 508 211 28;
#X msg 596 211 2.66667;
#X obj 413 392 output~;
#X obj 505 390 output~;
#X obj 637 486 output~;
#X obj 637 444 osc~;
#X obj 640 406 *~ 100;
#X obj 637 374 +~ 5;
#X obj 1007 252 sig~ 0.1;
#X floatatom 995 213 5 0 0 0 - - -;
#X obj 1099 373 snapshot~;
#X obj 1100 351 bng 15 250 50 0 empty empty empty 17 7 0 10 -262144
-1 -1;
#X floatatom 1099 397 9 0 0 0 - - -;
#X obj 1145 326 metro 100;
#X obj 1145 295 tgl 15 0 empty empty empty 17 7 0 10 -262144 -1 -1
0 1;
#X obj 981 376 env~ 8192;
#X floatatom 981 400 5 0 0 0 - - -;
#X obj 863 298 phasor~ 200;
#X obj 889 375 *~ 1;
#X msg 24 360 set 1 0 0 \, print;
#X obj 299 348 rungekutta~ lorenz 2;
#X obj 898 327 rungekutta~ rk_onepole;
#X obj 870 437 output~;
#X connect 0 0 1 0;
#X connect 2 0 61 0;
#X connect 3 0 4 0;
#X connect 4 0 61 1;
#X connect 6 0 3 0;
#X connect 8 0 9 0;
#X connect 9 0 61 0;
#X connect 11 0 24 0;
#X connect 12 0 61 0;
#X connect 16 0 17 0;
#X connect 17 0 20 0;
#X connect 18 0 19 0;
#X connect 19 0 61 0;
#X connect 20 0 18 0;
#X connect 21 0 22 0;
#X connect 22 0 16 0;
#X connect 24 0 6 0;
#X connect 25 0 26 0;
#X connect 26 0 61 2;
#X connect 27 0 25 0;
#X connect 28 0 41 0;
#X connect 29 0 30 0;
#X connect 30 0 61 3;
#X connect 31 0 29 0;
#X connect 32 0 42 0;
#X connect 34 0 33 0;
#X connect 40 0 60 0;
#X connect 41 0 27 0;
#X connect 42 0 31 0;
#X connect 46 0 45 0;
#X connect 46 0 45 1;
#X connect 47 0 46 0;
#X connect 48 0 47 0;
#X connect 49 0 62 1;
#X connect 50 0 49 0;
#X connect 51 0 53 0;
#X connect 52 0 51 0;
#X connect 54 0 51 0;
#X connect 55 0 54 0;
#X connect 56 0 57 0;
#X connect 58 0 62 0;
#X connect 59 0 63 0;
#X connect 60 0 61 0;
#X connect 61 0 0 0;
#X connect 61 0 5 0;
#X connect 61 0 33 0;
#X connect 61 0 5 1;
#X connect 61 1 43 0;
#X connect 61 1 43 1;
#X connect 61 2 44 0;
#X connect 61 2 44 1;
#X connect 61 2 48 0;
#X connect 62 0 51 0;
#X connect 62 0 56 0;
#X connect 62 0 59 0;
