#N canvas 521 80 1093 598 12;
#X msg 60 203 print;
#X obj 174 173 clip~ 1 22050;
#X text 411 65 0 for perfectly linear. Otherwise \, the lower the value
\, the more nonlinear. The 2-4 range is a tasteful region.;
#X obj 57 42 inlet~;
#X obj 105 415 outlet~;
#X obj 255 415 outlet~;
#X obj 405 415 outlet~;
#X text 102 446 lowpass;
#X text 249 447 bandpass;
#X text 402 450 highpass;
#X obj 648 306 samplerate~;
#X obj 624 265 bng 15 250 50 0 empty empty empty 17 7 0 10 -262144
-1 -1;
#X obj 648 330 * 0.5;
#X obj 648 354 - 1;
#X obj 648 269 loadbang;
#X obj 174 43 inlet~;
#X obj 450 356 max~ 1;
#X obj 411 388 /~;
#X obj 411 331 -~;
#X obj 426 308 *~ 2;
#X obj 426 284 *~;
#X obj 411 355 -~;
#X obj 108 203 rungekutta~ rungekutta~/state_variable 3;
#X obj 405 43 inlet~;
#X text 410 18 nonlinearity;
#X text 264 17 resonance (Q);
#X text 171 21 cutoff;
#X text 45 20 input;
#X text 641 378 prevent calculation of impossible frequency;
#X text 402 204 3x oversampling seems to be audibly just fine up to
Nyquist;
#X obj 292 43 inlet~;
#X connect 0 0 22 0;
#X connect 1 0 22 1;
#X connect 3 0 18 0;
#X connect 3 0 22 0;
#X connect 10 0 12 0;
#X connect 11 0 10 0;
#X connect 12 0 13 0;
#X connect 13 0 1 2;
#X connect 14 0 10 0;
#X connect 15 0 1 0;
#X connect 16 0 17 1;
#X connect 17 0 6 0;
#X connect 18 0 21 0;
#X connect 19 0 18 1;
#X connect 20 0 19 0;
#X connect 21 0 17 0;
#X connect 22 0 5 0;
#X connect 22 0 20 0;
#X connect 22 1 4 0;
#X connect 22 1 21 1;
#X connect 23 0 22 3;
#X connect 30 0 16 0;
#X connect 30 0 20 1;
#X connect 30 0 22 2;
