#N canvas 23 540 470 433 12;
#X obj 122 169 nv.svf~;
#X obj 162 36 osc~ 400;
#X obj 232 36 osc~ 2000;
#X obj 302 36 osc~ 10000;
#X obj 102 36 osc~ 80;
#X obj 130 97 +~;
#X obj 232 60 *~ 0.2;
#X obj 104 279 vudu.outs~;
#X obj 102 60 *~ 2;
#X obj 302 60 *~ 0.1;
#X floatatom 229 117 5 0 0 0 - - -;
#X obj 229 140 mtof;
#X floatatom 229 164 9 0 0 0 - - -;
#X floatatom 304 120 5 0 0 0 - - -;
#X obj 60 141 noise~;
#X obj 315 189 +~;
#X text 315 212 notch;
#X obj 385 190 -~;
#X text 385 212 peak;
#X text 109 192 lp;
#X text 139 192 bp;
#X text 169 192 hp;
#X connect 0 0 15 0;
#X connect 0 0 17 0;
#X connect 0 2 15 1;
#X connect 0 2 17 1;
#X connect 1 0 5 0;
#X connect 2 0 6 0;
#X connect 3 0 9 0;
#X connect 4 0 8 0;
#X connect 6 0 5 1;
#X connect 8 0 5 0;
#X connect 9 0 5 1;
#X connect 10 0 11 0;
#X connect 11 0 12 0;
#X connect 11 0 0 1;
#X connect 14 0 0 0;
#X connect 15 0 7 0;
