#N canvas 697 178 450 300 10;
#X floatatom 106 123 7 0 0 0 - - -, f 7;
#X floatatom 106 142 7 0 0 0 - - -, f 7;
#X floatatom 106 163 7 0 0 0 - - -, f 7;
#X floatatom 106 182 7 0 0 0 - - -, f 7;
#X obj 47 218 pack 0 20;
#X obj 47 240 line~;
#X obj 47 262 outlet~;
#X obj 185 46 r \$1;
#X obj 185 68 unpack 0 0 0 0;
#X obj 128 218 pack 0 20;
#X obj 128 240 line~;
#X obj 128 262 outlet~;
#X obj 215 216 pack 0 20;
#X obj 215 238 line~;
#X obj 215 260 outlet~;
#X obj 296 216 pack 0 20;
#X obj 296 238 line~;
#X obj 296 260 outlet~;
#X obj 316 47 r \$1-1;
#X obj 323 71 r \$1-2;
#X obj 320 99 r \$1-3;
#X obj 317 120 r \$1-4;
#X connect 0 0 4 0;
#X connect 1 0 9 0;
#X connect 2 0 12 0;
#X connect 3 0 15 0;
#X connect 4 0 5 0;
#X connect 5 0 6 0;
#X connect 7 0 8 0;
#X connect 8 0 0 0;
#X connect 8 1 1 0;
#X connect 8 2 2 0;
#X connect 8 3 3 0;
#X connect 9 0 10 0;
#X connect 10 0 11 0;
#X connect 12 0 13 0;
#X connect 13 0 14 0;
#X connect 15 0 16 0;
#X connect 16 0 17 0;
#X connect 18 0 0 0;
#X connect 19 0 1 0;
#X connect 20 0 2 0;
#X connect 21 0 3 0;
#X coords 0 -1 1 1 72 100 1 100 100;
