#N canvas 185 122 1365 651 12;
#X obj 251 378 env~ 8192, f 4;
#X floatatom 250 418 5 0 0 0 - - -;
#X msg 225 304 print;
#X obj 421 259 pack 0 50;
#X obj 421 284 line~;
#X obj 300 424 output~;
#X floatatom 420 237 7 0 0 0 - - -;
#X text 164 277 filter state;
#X floatatom 23 272 5 1 10 0 - - -;
#X msg 23 299 oversample \$1;
#X text 248 485 output monitor;
#X obj 420 186 loadbang;
#X msg 161 303 set;
#X text 160 258 set or print;
#X text 174 236 utility:;
#X text 16 245 oversampling:;
#X floatatom 311 193 5 0 150 0 - - -;
#X obj 311 215 mtof;
#X obj 312 260 pack 0 50;
#X obj 312 285 line~;
#X floatatom 311 238 7 0 0 0 - - -;
#X obj 311 144 loadbang;
#X msg 311 169 69;
#X obj 509 259 pack 0 50;
#X obj 509 284 line~;
#X floatatom 508 237 7 0 0 0 - - -;
#X obj 508 186 loadbang;
#X obj 597 259 pack 0 50;
#X obj 597 284 line~;
#X floatatom 596 237 7 0 0 0 - - -;
#X obj 596 186 loadbang;
#X obj 164 380 print~;
#X obj 163 351 bng 15 250 50 0 empty empty empty 17 7 0 10 -262144
-1 -1;
#X text 272 107 speed parameter;
#X text 449 133 classical parameters:;
#X obj 28 332 loadbang;
#X obj 414 422 output~;
#X obj 637 486 output~;
#X obj 637 444 osc~;
#X obj 640 406 *~ 100;
#X obj 637 374 +~ 5;
#X msg 24 360 set 1 0 0 \, print;
#X obj 299 348 rungekutta~ rossler 2;
#X msg 420 211 0.1;
#X msg 508 211 0.1;
#X msg 596 211 14;
#X text 602 157 c;
#X text 515 157 b;
#X text 428 157 a;
#X text 239 35 Rössler attractor;
#X connect 0 0 1 0;
#X connect 2 0 42 0;
#X connect 3 0 4 0;
#X connect 4 0 42 1;
#X connect 6 0 3 0;
#X connect 8 0 9 0;
#X connect 9 0 42 0;
#X connect 11 0 43 0;
#X connect 12 0 42 0;
#X connect 16 0 17 0;
#X connect 17 0 20 0;
#X connect 18 0 19 0;
#X connect 19 0 42 0;
#X connect 20 0 18 0;
#X connect 21 0 22 0;
#X connect 22 0 16 0;
#X connect 23 0 24 0;
#X connect 24 0 42 2;
#X connect 25 0 23 0;
#X connect 26 0 44 0;
#X connect 27 0 28 0;
#X connect 28 0 42 3;
#X connect 29 0 27 0;
#X connect 30 0 45 0;
#X connect 32 0 31 0;
#X connect 35 0 41 0;
#X connect 38 0 37 0;
#X connect 38 0 37 1;
#X connect 39 0 38 0;
#X connect 40 0 39 0;
#X connect 41 0 42 0;
#X connect 42 0 0 0;
#X connect 42 0 5 0;
#X connect 42 0 31 0;
#X connect 42 1 5 1;
#X connect 42 1 36 0;
#X connect 42 2 36 1;
#X connect 42 2 40 0;
#X connect 43 0 6 0;
#X connect 44 0 25 0;
#X connect 45 0 29 0;
